<svg width="14" height="13" viewBox="0 0 14 13" fill="none" xmlns="http://www.w3.org/2000/svg">
<path d="M7 13C3.1386 13 0 10.0856 0 6.5C0 2.91442 3.1386 0 7 0C10.8614 0 14 2.91442 14 6.5C14 10.0856 10.8614 13 7 13ZM7 0.906977C3.67907 0.906977 0.976744 3.41628 0.976744 6.5C0.976744 9.58372 3.67907 12.093 7 12.093C10.3209 12.093 13.0233 9.58372 13.0233 6.5C13.0233 3.41628 10.3209 0.906977 7 0.906977Z" fill="#D8D8D8"/>
<path d="M9.41595 8.87628C9.3313 8.87628 9.24665 8.85814 9.16851 8.80977L7.1499 7.69116C6.64851 7.41302 6.27734 6.80233 6.27734 6.26419V3.78512C6.27734 3.53722 6.49874 3.33163 6.76572 3.33163C7.03269 3.33163 7.25409 3.53722 7.25409 3.78512V6.26419C7.25409 6.48186 7.44944 6.80233 7.6513 6.91116L9.6699 8.02977C9.90432 8.15674 9.97595 8.43488 9.8392 8.65256C9.74153 8.79767 9.57874 8.87628 9.41595 8.87628Z" fill="#D8D8D8"/>
</svg>
