<svg width="29" height="29" viewBox="0 0 29 29" fill="none" xmlns="http://www.w3.org/2000/svg">
<path d="M14.9953 7.0688C11.0203 7.0688 7.81406 10.275 7.81406 14.25C7.81406 18.225 11.0203 21.4313 14.9953 21.4313C18.9703 21.4313 22.1766 18.225 22.1766 14.25C22.1766 10.275 18.9703 7.0688 14.9953 7.0688ZM14.9953 18.9188C12.4266 18.9188 10.3266 16.825 10.3266 14.25C10.3266 11.675 12.4203 9.5813 14.9953 9.5813C17.5703 9.5813 19.6641 11.675 19.6641 14.25C19.6641 16.825 17.5641 18.9188 14.9953 18.9188ZM24.1453 6.77505C24.1453 7.7063 23.3953 8.45005 22.4703 8.45005C21.5391 8.45005 20.7953 7.70005 20.7953 6.77505C20.7953 5.85005 21.5453 5.10005 22.4703 5.10005C23.3953 5.10005 24.1453 5.85005 24.1453 6.77505ZM28.9016 8.47505C28.7953 6.2313 28.2828 4.2438 26.6391 2.6063C25.0016 0.968799 23.0141 0.456299 20.7703 0.343799C18.4578 0.212549 11.5266 0.212549 9.21406 0.343799C6.97656 0.450049 4.98906 0.962549 3.34531 2.60005C1.70156 4.23755 1.19531 6.22505 1.08281 8.4688C0.951563 10.7813 0.951563 17.7125 1.08281 20.025C1.18906 22.2688 1.70156 24.2563 3.34531 25.8938C4.98906 27.5313 6.97031 28.0438 9.21406 28.1563C11.5266 28.2875 18.4578 28.2875 20.7703 28.1563C23.0141 28.05 25.0016 27.5375 26.6391 25.8938C28.2766 24.2563 28.7891 22.2688 28.9016 20.025C29.0328 17.7125 29.0328 10.7875 28.9016 8.47505ZM25.9141 22.5063C25.4266 23.7313 24.4828 24.675 23.2516 25.1688C21.4078 25.9 17.0328 25.7313 14.9953 25.7313C12.9578 25.7313 8.57656 25.8938 6.73906 25.1688C5.51406 24.6813 4.57031 23.7375 4.07656 22.5063C3.34531 20.6625 3.51406 16.2875 3.51406 14.25C3.51406 12.2125 3.35156 7.8313 4.07656 5.9938C4.56406 4.7688 5.50781 3.82505 6.73906 3.3313C8.58281 2.60005 12.9578 2.7688 14.9953 2.7688C17.0328 2.7688 21.4141 2.6063 23.2516 3.3313C24.4766 3.8188 25.4203 4.76255 25.9141 5.9938C26.6453 7.83755 26.4766 12.2125 26.4766 14.25C26.4766 16.2875 26.6453 20.6688 25.9141 22.5063Z" fill="#0F0F0F"/>
</svg>
