<svg width="15" height="15" viewBox="0 0 15 15" fill="none" xmlns="http://www.w3.org/2000/svg">
<path d="M12.1875 13.125H2.8125C2.56396 13.1247 2.3257 13.0258 2.14996 12.85C1.97421 12.6743 1.87533 12.436 1.875 12.1875V2.8125C1.87533 2.56396 1.97421 2.3257 2.14996 2.14996C2.3257 1.97421 2.56396 1.87533 2.8125 1.875H7.5V2.8125H2.8125V12.1875H12.1875V7.5H13.125V12.1875C13.1247 12.436 13.0258 12.6743 12.85 12.85C12.6743 13.0258 12.436 13.1247 12.1875 13.125Z" fill="black"/>
<path d="M9.375 0.9375V1.875H12.4622L8.4375 5.89969L9.10031 6.5625L13.125 2.53781V5.625H14.0625V0.9375H9.375Z" fill="black"/>
</svg>
