<svg width="13" height="16" viewBox="0 0 13 16" fill="none" xmlns="http://www.w3.org/2000/svg">
<path fill-rule="evenodd" clip-rule="evenodd" d="M2.56137 2.46012C3.60643 1.45377 5.02325 0.888901 6.5 0.888901C7.97675 0.888901 9.39357 1.45377 10.4386 2.46012C11.4838 3.46653 12.0714 4.83206 12.0714 6.25648C12.0714 8.71278 10.6489 10.9356 9.16663 12.5771C8.43106 13.3916 7.69428 14.048 7.14136 14.5005C6.87858 14.7156 6.65809 14.8841 6.5 15.001C6.34191 14.8841 6.12142 14.7156 5.85864 14.5005C5.30572 14.048 4.56894 13.3916 3.83337 12.5771C2.3511 10.9356 0.928571 8.71278 0.928571 6.25648C0.928571 4.83206 1.51622 3.46653 2.56137 2.46012ZM6.23239 15.919C6.23257 15.9191 6.23271 15.9191 6.5 15.5558C6.76729 15.9191 6.76743 15.9191 6.76761 15.919C6.6073 16.027 6.3927 16.027 6.23239 15.919ZM6.23239 15.919L6.5 15.5558L6.76761 15.919L6.76929 15.9178L6.77351 15.915L6.78827 15.9048C6.80095 15.8961 6.8192 15.8835 6.8426 15.8671C6.8894 15.8341 6.95695 15.7859 7.04233 15.7231C7.213 15.5975 7.45508 15.4133 7.7448 15.1762C8.32358 14.7024 9.09573 14.0148 9.86909 13.1584C11.4047 11.4579 13 9.03101 13 6.25648C13 4.59802 12.3158 3.00693 11.0972 1.8334C9.87838 0.659804 8.22477 0 6.5 0C4.77522 0 3.12162 0.659804 1.90283 1.8334C0.684171 3.00693 0 4.59802 0 6.25648C0 9.03101 1.59533 11.4579 3.13091 13.1584C3.90427 14.0148 4.67642 14.7024 5.2552 15.1762C5.54492 15.4133 5.787 15.5975 5.95767 15.7231C6.04305 15.7859 6.1106 15.8341 6.1574 15.8671C6.1808 15.8835 6.19905 15.8961 6.21173 15.9048L6.22649 15.915L6.23071 15.9178L6.23239 15.919ZM4.64286 6.2223C4.64286 5.24047 5.47435 4.4445 6.5 4.4445C7.52565 4.4445 8.35714 5.24047 8.35714 6.2223C8.35714 7.20414 7.52565 8.00011 6.5 8.00011C5.47435 8.00011 4.64286 7.20414 4.64286 6.2223ZM6.5 3.5556C4.9615 3.5556 3.71429 4.74953 3.71429 6.2223C3.71429 7.69508 4.9615 8.88901 6.5 8.88901C8.0385 8.88901 9.28571 7.69508 9.28571 6.2223C9.28571 4.74953 8.0385 3.5556 6.5 3.5556Z" fill="#D8D8D8"/>
</svg>
