<svg width="20" height="21" viewBox="0 0 20 21" fill="none" xmlns="http://www.w3.org/2000/svg">
<path d="M16.2508 8.62345C16.2508 10.4165 15.6687 12.0728 14.6882 13.4167L19.6338 18.3661C20.1221 18.8544 20.1221 19.6474 19.6338 20.1357C19.1455 20.624 18.3525 20.624 17.8642 20.1357L12.9186 15.1863C11.5748 16.1707 9.91845 16.7488 8.1254 16.7488C3.6369 16.7488 0 13.1119 0 8.62345C0 4.13494 3.6369 0.498047 8.1254 0.498047C12.6139 0.498047 16.2508 4.13494 16.2508 8.62345ZM8.1254 14.2487C8.86412 14.2487 9.59561 14.1032 10.2781 13.8205C10.9606 13.5378 11.5807 13.1235 12.1031 12.6011C12.6254 12.0788 13.0398 11.4586 13.3225 10.7761C13.6052 10.0937 13.7507 9.36217 13.7507 8.62345C13.7507 7.88472 13.6052 7.15324 13.3225 6.47075C13.0398 5.78826 12.6254 5.16813 12.1031 4.64577C11.5807 4.12342 10.9606 3.70906 10.2781 3.42637C9.59561 3.14367 8.86412 2.99817 8.1254 2.99817C7.38668 2.99817 6.65519 3.14367 5.9727 3.42637C5.29021 3.70906 4.67008 4.12342 4.14773 4.64577C3.62537 5.16813 3.21102 5.78826 2.92832 6.47075C2.64562 7.15324 2.50012 7.88472 2.50012 8.62345C2.50012 9.36217 2.64562 10.0937 2.92832 10.7761C3.21102 11.4586 3.62537 12.0788 4.14773 12.6011C4.67008 13.1235 5.29021 13.5378 5.9727 13.8205C6.65519 14.1032 7.38668 14.2487 8.1254 14.2487Z" fill="#0F0F0F"/>
</svg>
