<svg width="29" height="29" viewBox="0 0 29 29" fill="none" xmlns="http://www.w3.org/2000/svg">
<path d="M24.7906 4.31875C22.1719 1.69375 18.6844 0.25 14.9781 0.25C7.32812 0.25 1.10312 6.475 1.10312 14.125C1.10312 16.5688 1.74063 18.9562 2.95312 21.0625L0.984375 28.25L8.34062 26.3188C10.3656 27.425 12.6469 28.0063 14.9719 28.0063H14.9781C22.6219 28.0063 28.9844 21.7812 28.9844 14.1313C28.9844 10.425 27.4094 6.94375 24.7906 4.31875ZM14.9781 25.6688C12.9031 25.6688 10.8719 25.1125 9.10312 24.0625L8.68437 23.8125L4.32188 24.9562L5.48438 20.7L5.20937 20.2625C4.05312 18.425 3.44688 16.3062 3.44688 14.125C3.44688 7.76875 8.62187 2.59375 14.9844 2.59375C18.0656 2.59375 20.9594 3.79375 23.1344 5.975C25.3094 8.15625 26.6469 11.05 26.6406 14.1313C26.6406 20.4938 21.3344 25.6688 14.9781 25.6688ZM21.3031 17.0312C20.9594 16.8563 19.2531 16.0188 18.9344 15.9062C18.6156 15.7875 18.3844 15.7312 18.1531 16.0812C17.9219 16.4312 17.2594 17.2063 17.0531 17.4438C16.8531 17.675 16.6469 17.7062 16.3031 17.5312C14.2656 16.5125 12.9281 15.7125 11.5844 13.4062C11.2281 12.7937 11.9406 12.8375 12.6031 11.5125C12.7156 11.2812 12.6594 11.0813 12.5719 10.9062C12.4844 10.7312 11.7906 9.025 11.5031 8.33125C11.2219 7.65625 10.9344 7.75 10.7219 7.7375C10.5219 7.725 10.2906 7.725 10.0594 7.725C9.82812 7.725 9.45312 7.8125 9.13437 8.15625C8.81562 8.50625 7.92188 9.34375 7.92188 11.05C7.92188 12.7563 9.16563 14.4063 9.33438 14.6375C9.50938 14.8688 11.7781 18.3687 15.2594 19.875C17.4594 20.825 18.3219 20.9062 19.4219 20.7437C20.0906 20.6437 21.4719 19.9062 21.7594 19.0938C22.0469 18.2812 22.0469 17.5875 21.9594 17.4438C21.8781 17.2875 21.6469 17.2 21.3031 17.0312Z" fill="#0F0F0F"/>
</svg>
