<svg width="31" height="23" viewBox="0 0 31 23" fill="none" xmlns="http://www.w3.org/2000/svg">
<path d="M18.7844 11.25L13.8844 14.05V8.44995L18.7844 11.25Z" fill="black" stroke="black" stroke-width="2" stroke-linecap="round" stroke-linejoin="round"/>
<path d="M1.98438 12.2405V10.2593C1.98438 6.20582 1.98437 4.1791 3.25206 2.87504C4.51976 1.57098 6.51556 1.51454 10.5071 1.40164C12.3986 1.34815 14.3307 1.30981 15.9844 1.30981C17.6381 1.30981 19.5702 1.34815 21.4616 1.40164C25.4531 1.51454 27.449 1.57098 28.7167 2.87504C29.9844 4.1791 29.9844 6.20582 29.9844 10.2593V12.2405C29.9844 16.2939 29.9844 18.3207 28.7167 19.6246C27.449 20.9287 25.4533 20.9851 21.4617 21.0981C19.5702 21.1516 17.6381 21.19 15.9844 21.19C14.3307 21.19 12.3985 21.1516 10.507 21.0981C6.51549 20.9851 4.51973 20.9287 3.25205 19.6246C1.98437 18.3207 1.98438 16.2939 1.98438 12.2405Z" stroke="black" stroke-width="2"/>
</svg>
